<svg xmlns="http://www.w3.org/2000/svg" width="44" height="44" viewBox="0 0 44 44">
    <circle cx="22" cy="22" r="22" fill="#fff"/>
    <g fill="none">
        <g stroke-linecap="round" stroke-linejoin="round">
            <path d="M17.238 4.324a4.437 4.437 0 0 0-6.327 0l-.862.872-.862-.872a4.438 4.438 0 0 0-6.327 0 4.563 4.563 0 0 0 0 6.4l.862.872L10.048 18l6.327-6.4.862-.872a4.562 4.562 0 0 0 0-6.4z" transform="translate(12 12) translate(-.148 .002)"/>
            <path fill="#222" d="M14.074 4.498c-.79 0-1.535.313-2.097.88l-.862.873c-.282.285-.666.445-1.067.445-.4 0-.784-.16-1.066-.445l-.862-.872c-.561-.568-1.306-.88-2.097-.88-.791 0-1.536.312-2.097.88-1.17 1.183-1.17 3.108 0 4.292l.862.872 5.26 5.321 5.261-5.321.862-.873c1.17-1.183 1.17-3.108 0-4.291-.561-.568-1.306-.88-2.097-.88m0-1.5c1.145 0 2.29.441 3.164 1.325 1.748 1.768 1.748 4.634 0 6.401l-.862.872-6.328 6.401-6.327-6.4-.862-.873c-1.747-1.767-1.747-4.633 0-6.4.874-.884 2.019-1.326 3.164-1.326s2.29.442 3.163 1.325l.862.872.863-.872c.873-.884 2.018-1.326 3.163-1.326z" transform="translate(12 12) translate(-.148 .002)"/>
        </g>
        <path d="M0 0H20V20H0z" transform="translate(12 12)"/>
    </g>
</svg>
