<svg xmlns="http://www.w3.org/2000/svg" width="24" height="24" viewBox="0 0 24 24">
    <defs>
        <style>
            .cls-1{fill:none}
        </style>
    </defs>
    <g id="ico_call" transform="translate(-342 -430)">
        <circle id="타원_142" cx="12" cy="12" r="12" class="cls-1" transform="translate(342 430)"/>
        <g id="phone_in_talk_black_24dp" opacity="0.2" transform="translate(342 430)">
            <path id="패스_5369" d="M0 0h24v24H0z" class="cls-1"/>
            <path id="패스_5370" d="M20 15.5a11.36 11.36 0 0 1-3.57-.57 1.021 1.021 0 0 0-1.02.24l-2.2 2.2a15.045 15.045 0 0 1-6.59-6.59l2.2-2.21a.96.96 0 0 0 .25-1A11.36 11.36 0 0 1 8.5 4a1 1 0 0 0-1-1H4a1 1 0 0 0-1 1 17 17 0 0 0 17 17 1 1 0 0 0 1-1v-3.5a1 1 0 0 0-1-1zM19 12h2a9 9 0 0 0-9-9v2a7 7 0 0 1 7 7zm-4 0h2a5 5 0 0 0-5-5v2a3 3 0 0 1 3 3z"/>
        </g>
    </g>
</svg>
