<svg xmlns="http://www.w3.org/2000/svg" width="52" height="52" viewBox="0 0 52 52">
  <g id="ico_age_15" transform="translate(4 4)">
    <g id="ico_age">
      <path id="패스_30" data-name="패스 30" d="M21.29,0A21.29,21.29,0,1,1,0,21.29" transform="translate(42.58 1.419) rotate(90)" fill="none" stroke="#e60012" stroke-width="1.5"/>
      <g id="그룹_39" data-name="그룹 39" transform="translate(29.807)">
        <path id="패스_31" data-name="패스 31" d="M609.365,1651v14.193" transform="translate(-602.268 -1651)" fill="none" stroke="#e60012" stroke-width="1.5"/>
        <path id="패스_32" data-name="패스 32" d="M0,0V14.194" transform="translate(14.194 7.097) rotate(90)" fill="none" stroke="#e60012" stroke-width="1.5"/>
      </g>
      <path id="패스_45431" data-name="패스 45431" d="M-2.561,0H-4.834V-9.391H-7.186v-1.742l4.625-.406ZM.686-5.016l.656-6.359H7.686v1.828H3.209L2.9-6.891a2.756,2.756,0,0,1,.8-.387,3.855,3.855,0,0,1,1.055-.168,3.015,3.015,0,0,1,2.457.98,4.162,4.162,0,0,1,.871,2.816A3.989,3.989,0,0,1,7.139-.906,3.658,3.658,0,0,1,4.248.164,4.372,4.372,0,0,1,1.561-.668,2.6,2.6,0,0,1,.483-2.953L.5-2.992l2.2-.1a1.438,1.438,0,0,0,.43,1.109,1.589,1.589,0,0,0,1.125.4,1.342,1.342,0,0,0,1.184-.531A2.627,2.627,0,0,0,5.8-3.633,2.691,2.691,0,0,0,5.4-5.2a1.372,1.372,0,0,0-1.2-.582,1.748,1.748,0,0,0-1,.242,1.321,1.321,0,0,0-.5.656Z" transform="translate(21.2 29)" fill="#e60012"/>
    </g>
    <rect id="사각형_11979" data-name="사각형 11979" width="52" height="52" transform="translate(-4 -4)" fill="none"/>
  </g>
</svg>
