<svg xmlns="http://www.w3.org/2000/svg" width="28" height="28" viewBox="0 0 28 28">
    <g transform="translate(-833 -703)">
        <circle cx="14" cy="14" r="14" fill="#4ca2f2" transform="translate(833 703)"/>
        <path fill="#fff" d="M225.8 130.969a7.537 7.537 0 0 0 7.589-7.589c0-.116 0-.231-.008-.345a5.427 5.427 0 0 0 1.331-1.381 5.328 5.328 0 0 1-1.532.42 2.677 2.677 0 0 0 1.173-1.475 5.344 5.344 0 0 1-1.694.647 2.669 2.669 0 0 0-4.545 2.432 7.572 7.572 0 0 1-5.5-2.787 2.669 2.669 0 0 0 .826 3.561 2.649 2.649 0 0 1-1.208-.334v.034a2.668 2.668 0 0 0 2.14 2.615 2.662 2.662 0 0 1-1.2.046 2.67 2.67 0 0 0 2.492 1.852 5.352 5.352 0 0 1-3.313 1.142 5.422 5.422 0 0 1-.636-.037 7.55 7.55 0 0 0 4.088 1.2" transform="translate(619.289 591.596)"/>
    </g>
</svg>
