<svg xmlns="http://www.w3.org/2000/svg" width="100" height="100" viewBox="0 0 100 100">
  <g id="ico_360view" transform="translate(-690 -3070)">
    <circle id="타원_132" data-name="타원 132" cx="50" cy="50" r="50" transform="translate(690 3070)" fill="#fff" opacity="0.9"/>
    <g id="그룹_3038" data-name="그룹 3038" transform="translate(-638.737 2752.58)">
      <g id="타원_133" data-name="타원 133">
        <path id="패스_45151" data-name="패스 45151" d="M1398.46,362.43c6.3,1.833,10.277,4.529,10.277,7.535,0,5.059-11.269,9.24-25.9,9.907" fill="none" stroke="#000" stroke-miterlimit="10" stroke-width="1.5"/>
        <path id="패스_45151-2" data-name="패스 45151" d="M1374.75,379.878c-14.684-.65-26.013-4.841-26.013-9.913,0-3.076,4.167-5.828,10.723-7.662" fill="none" stroke="#000" stroke-miterlimit="10" stroke-width="1.5"/>
      </g>
      <path id="패스_45152" data-name="패스 45152" d="M1371.46,375.67l4,4-4,4" fill="none" stroke="#000" stroke-miterlimit="10" stroke-width="1.5"/>
      <circle id="타원_133-2" data-name="타원 133-2" cx="2.5" cy="2.5" r="2.5" transform="translate(1396.737 353.17)" fill="none" stroke="#000" stroke-miterlimit="10" stroke-width="1.8"/>
      <g id="_360o" data-name=" 360o">
        <g id="그룹_3038-2" data-name="그룹 3038">
          <path id="패스_45153" data-name="패스 45153" d="M1367.98,359.692a1.836,1.836,0,0,0,1.4-.491,1.945,1.945,0,0,0,.459-1.381,1.7,1.7,0,0,0-.482-1.236,1.8,1.8,0,0,0-1.345-.491,1.763,1.763,0,0,0-1.223.446,1.458,1.458,0,0,0-.5,1.136h-2.563l-.018-.055a3,3,0,0,1,1.2-2.563,4.782,4.782,0,0,1,3.1-1.009,5.083,5.083,0,0,1,3.263.968,3.355,3.355,0,0,1,1.208,2.777,2.882,2.882,0,0,1-.522,1.668,3.586,3.586,0,0,1-1.431,1.2,3.361,3.361,0,0,1,1.6,1.186,3.244,3.244,0,0,1,.563,1.923,3.452,3.452,0,0,1-1.313,2.858,5.776,5.776,0,0,1-6.53.059,3.1,3.1,0,0,1-1.308-2.754l.019-.054h2.581a1.662,1.662,0,0,0,.523,1.25,1.858,1.858,0,0,0,1.349.5,2.051,2.051,0,0,0,1.472-.537,1.793,1.793,0,0,0,.563-1.354,2.062,2.062,0,0,0-.527-1.55,2.159,2.159,0,0,0-1.545-.5h-1.464v-1.99Z" fill="#222"/>
          <path id="패스_45154" data-name="패스 45154" d="M1379.476,354.048a6.951,6.951,0,0,1,1.431.141,7.336,7.336,0,0,1,1.3.414l-.473,1.945a10.205,10.205,0,0,0-1.109-.314,5.545,5.545,0,0,0-1.135-.105,2.291,2.291,0,0,0-1.877.891,3.863,3.863,0,0,0-.713,2.481v.427a3.682,3.682,0,0,1,1.258-.8,4.472,4.472,0,0,1,1.631-.286,3.2,3.2,0,0,1,2.654,1.2,4.905,4.905,0,0,1,.954,3.14,4.4,4.4,0,0,1-1.236,3.235,4.765,4.765,0,0,1-6.6-.172,5.513,5.513,0,0,1-1.3-3.881v-2.772a5.519,5.519,0,0,1,1.477-4.031A5,5,0,0,1,1379.476,354.048Zm-.563,6.8a2.932,2.932,0,0,0-1.223.232,1.875,1.875,0,0,0-.786.64v.709a4.225,4.225,0,0,0,.558,2.363,1.7,1.7,0,0,0,1.477.837,1.532,1.532,0,0,0,1.318-.7,2.963,2.963,0,0,0,.49-1.749,2.682,2.682,0,0,0-.5-1.713,1.624,1.624,0,0,0-1.334-.621Z" fill="#222"/>
          <path id="패스_45155" data-name="패스 45155" d="M1393.891,362.677a5.193,5.193,0,0,1-1.223,3.654,4.646,4.646,0,0,1-6.5,0,5.169,5.169,0,0,1-1.227-3.654v-3.64a5.2,5.2,0,0,1,1.223-3.653,4.618,4.618,0,0,1,6.5,0,5.186,5.186,0,0,1,1.232,3.653Zm-2.645-3.917a3.433,3.433,0,0,0-.487-1.972,1.651,1.651,0,0,0-2.7,0,3.472,3.472,0,0,0-.477,1.972v4.172a3.47,3.47,0,0,0,.482,1.994,1.559,1.559,0,0,0,1.363.7,1.535,1.535,0,0,0,1.34-.7,3.507,3.507,0,0,0,.477-1.994Z" fill="#222"/>
        </g>
      </g>
    </g>
  </g>
</svg>
