<svg xmlns="http://www.w3.org/2000/svg" width="52" height="52" viewBox="0 0 52 52">
  <g id="ico_tools" transform="translate(-821 -2172)">
    <g id="그룹_3284" data-name="그룹 3284" transform="translate(1.42 2.664)">
      <path id="합치기_8" data-name="합치기 8" d="M17079.451-3028.229a2.568,2.568,0,0,1-1.232-1.605,20.894,20.894,0,0,1-.969-5,23.952,23.952,0,0,1,.879-8.4,32.09,32.09,0,0,1,4.648-9.09,6.721,6.721,0,0,1-.869-4.8c-5.564-10.005,3.324-15.275,3.324-15.275l2.8,9.86a6.711,6.711,0,0,1,.826-.006l2.826-9.936s8.834,5.236,3.369,15.189a6.722,6.722,0,0,1-.709,4.755,32.126,32.126,0,0,1,4.686,9.14,23.908,23.908,0,0,1,.881,8.4,21.174,21.174,0,0,1-.971,5,3.151,3.151,0,0,1-.717,1.236,1.706,1.706,0,0,1-1.947.356,1.625,1.625,0,0,1-1.061-1.888c.025-.185.086-.472.168-.837.445-2.094,1.377-6.455.244-10.562a33.9,33.9,0,0,0-4.01-8.2,6.733,6.733,0,0,1-6.041.1,34.331,34.331,0,0,0-4.053,8.261c-1.127,4.112-.2,8.468.25,10.562.076.365.137.652.168.837a1.711,1.711,0,0,1-.418,1.481,1.807,1.807,0,0,1-.643.408,2.045,2.045,0,0,1-.764.158A1.59,1.59,0,0,1,17079.451-3028.229Z" transform="translate(-16243 5246)" fill="none" stroke="#e60012" stroke-miterlimit="10" stroke-width="1.5"/>
      <g id="타원_179" data-name="타원 179" transform="translate(856.057 2190.159) rotate(135)" fill="none" stroke="#e60012" stroke-miterlimit="10" stroke-width="1.5">
        <circle cx="7.465" cy="7.465" r="7.465" stroke="none"/>
        <circle cx="7.465" cy="7.465" r="6.715" fill="none"/>
      </g>
      <rect id="사각형_12936" data-name="사각형 12936" width="2.799" height="2.799" transform="translate(847.48 2189.768) rotate(135)" fill="none" stroke="#e60012" stroke-miterlimit="10" stroke-width="1.5"/>
    </g>
    <rect id="사각형_12938" data-name="사각형 12938" width="52" height="52" transform="translate(821 2172)" fill="none"/>
  </g>
</svg>
