<svg xmlns="http://www.w3.org/2000/svg" width="24" height="24" viewBox="0 0 24 24">
    <g fill="none">
        <g stroke-linecap="round" stroke-linejoin="round">
            <path d="M20.007 4.59a5.148 5.148 0 0 0-7.444 0l-1.015 1.046-1.014-1.046a5.149 5.149 0 0 0-7.444 0 5.555 5.555 0 0 0 0 7.681l1.01 1.046L11.548 21l7.444-7.681 1.014-1.047a5.553 5.553 0 0 0 0-7.681z" transform="translate(-1651 -193) translate(1651.451 193.002)"/>
            <path fill="#222" d="M16.285 4.498c-.997 0-1.936.403-2.645 1.135L12.626 6.68c-.283.291-.672.456-1.078.456s-.794-.165-1.077-.456L9.457 5.633C8.748 4.902 7.81 4.5 6.812 4.5c-.996 0-1.935.403-2.644 1.134-1.495 1.542-1.495 4.052 0 5.594l1.014 1.046 6.366 6.57 6.367-6.57 1.015-1.047c1.495-1.542 1.495-4.05 0-5.593-.71-.732-1.649-1.135-2.645-1.135m0-1.5c1.347 0 2.694.53 3.722 1.592 2.056 2.12 2.056 5.56 0 7.68l-1.015 1.047-7.444 7.681-7.443-7.68L3.09 12.27c-2.055-2.121-2.055-5.56 0-7.681 1.028-1.061 2.375-1.591 3.722-1.591s2.694.53 3.722 1.59l1.014 1.047 1.015-1.046c1.027-1.061 2.374-1.592 3.722-1.592z" transform="translate(-1651 -193) translate(1651.451 193.002)"/>
        </g>
        <path d="M0 0H24V24H0z" transform="translate(-1651 -193) translate(1651 193)"/>
    </g>
</svg>
