<svg xmlns="http://www.w3.org/2000/svg" width="23.996" height="23.996" viewBox="0 0 23.996 23.996">
    <path data-name="패스 3" d="M40.351 21.42a2.765 2.765 0 0 0-1.951-1.957C36.687 19 29.8 19 29.8 19s-6.886 0-8.6.463a2.765 2.765 0 0 0-1.947 1.957 28.963 28.963 0 0 0-.46 5.328 28.963 28.963 0 0 0 .46 5.328 2.765 2.765 0 0 0 1.947 1.957c1.717.463 8.6.463 8.6.463s6.886 0 8.6-.463a2.765 2.765 0 0 0 1.947-1.957 28.963 28.963 0 0 0 .46-5.328 28.963 28.963 0 0 0-.456-5.328zM27.6 30.068v-6.641l5.721 3.321z" transform="translate(-17.7 -14.637)" style="fill:#fff"/>
</svg>
