<svg id="insta" xmlns="http://www.w3.org/2000/svg" width="23.996" height="23.996" viewBox="0 0 23.996 23.996">
    <defs>
        <style>
            .cls-2{fill:#fcfcfc}
        </style>
    </defs>
    <g id="그룹_795" data-name="그룹 795" transform="translate(3.272 3.272)">
        <path id="패스_255" data-name="패스 255" class="cls-2" d="M743.748-64.175c2.35 0 2.628.009 3.556.051a4.872 4.872 0 0 1 1.634.3 2.727 2.727 0 0 1 1.012.658 2.727 2.727 0 0 1 .658 1.012 4.871 4.871 0 0 1 .3 1.634c.042.928.051 1.206.051 3.556s-.009 2.628-.051 3.556a4.871 4.871 0 0 1-.3 1.634 2.727 2.727 0 0 1-.658 1.012 2.727 2.727 0 0 1-1.012.658 4.871 4.871 0 0 1-1.634.3c-.928.042-1.206.051-3.556.051s-2.628-.009-3.556-.051a4.868 4.868 0 0 1-1.634-.3 2.726 2.726 0 0 1-1.012-.658 2.727 2.727 0 0 1-.658-1.012 4.87 4.87 0 0 1-.3-1.634c-.042-.928-.051-1.206-.051-3.556s.009-2.628.051-3.556a4.87 4.87 0 0 1 .3-1.634 2.727 2.727 0 0 1 .658-1.012 2.726 2.726 0 0 1 1.012-.658 4.869 4.869 0 0 1 1.634-.3c.928-.042 1.206-.051 3.556-.051m0-1.586c-2.39 0-2.69.01-3.628.053a6.462 6.462 0 0 0-2.136.409 4.316 4.316 0 0 0-1.559 1.015 4.314 4.314 0 0 0-1.015 1.559 6.461 6.461 0 0 0-.41 2.136c-.043.939-.053 1.238-.053 3.628s.01 2.69.053 3.628a6.462 6.462 0 0 0 .409 2.136 4.314 4.314 0 0 0 1.015 1.559 4.316 4.316 0 0 0 1.559 1.015 6.461 6.461 0 0 0 2.136.409c.939.043 1.239.053 3.628.053s2.69-.01 3.629-.053a6.461 6.461 0 0 0 2.136-.409 4.316 4.316 0 0 0 1.559-1.015 4.317 4.317 0 0 0 1.015-1.559 6.459 6.459 0 0 0 .409-2.136c.043-.939.053-1.238.053-3.628s-.01-2.69-.053-3.628a6.458 6.458 0 0 0-.409-2.136 4.316 4.316 0 0 0-1.015-1.559 4.316 4.316 0 0 0-1.559-1.015 6.462 6.462 0 0 0-2.136-.409c-.939-.043-1.238-.053-3.629-.053z" transform="translate(-734.947 65.761)"/>
        <path id="패스_256" data-name="패스 256" class="cls-2" d="M862.022 56.795a4.519 4.519 0 1 0 4.519 4.519 4.519 4.519 0 0 0-4.519-4.519zm0 7.453a2.934 2.934 0 1 1 2.934-2.934 2.933 2.933 0 0 1-2.934 2.934z" transform="translate(-853.222 -52.514)"/>
        <circle id="타원_58" data-name="타원 58" class="cls-2" cx="1.056" cy="1.056" transform="translate(12.442 3.047)" r="1.056"/>
    </g>
</svg>
