<svg xmlns="http://www.w3.org/2000/svg" width="23.996" height="23.996" viewBox="0 0 23.996 23.996">
    <path data-name="패스 45399" d="M96.426 132.4a12.768 12.768 0 0 0 12.855-12.855c0-.2 0-.39-.013-.584a9.193 9.193 0 0 0 2.254-2.339 9.019 9.019 0 0 1-2.595.711 4.535 4.535 0 0 0 1.987-2.5 9.054 9.054 0 0 1-2.869 1.1 4.522 4.522 0 0 0-7.7 4.121 12.828 12.828 0 0 1-9.313-4.721 4.522 4.522 0 0 0 1.4 6.032 4.486 4.486 0 0 1-2.046-.565v.058a4.52 4.52 0 0 0 3.625 4.43 4.51 4.51 0 0 1-2.04.077 4.523 4.523 0 0 0 4.221 3.138 9.066 9.066 0 0 1-5.612 1.934 9.2 9.2 0 0 1-1.078-.063 12.791 12.791 0 0 0 6.926 2.029" transform="translate(-88.409 -111.078)" style="fill:#fff"/>
</svg>
